# AST/ASF file generated using VICON BodyLanguage
# -----------------------------------------------
:version 1.10
:name VICON
:units
  mass 1.0
  length 0.45
  angle deg
:documentation
   .ast/.asf automatically generated from VICON data using
   VICON BodyBuilder and BodyLanguage model FoxedUp or BRILLIANT.MOD
:root
   order TX TY TZ RX RY RZ
   axis XYZ
   position 0 0 0  
   orientation 0 0 0 
:bonedata
  begin
     id 1 
     name lhipjoint
     direction 0.611804 -0.747784 0.257906 
     length 2.29243 
     axis 0 0 0  XYZ
  end
  begin
     id 2 
     name lfemur
     direction 0.34202 -0.939693 0  
     length 7.31159  
     axis 0 0 20  XYZ
    dof rx ry rz
    limits (-160.0 20.0)
           (-70.0 70.0)
           (-60.0 70.0)
  end
  begin
     id 3 
     name ltibia
     direction 0.34202 -0.939693 0   
     length 7.33391   
     axis 0 0 20   XYZ
    dof rx
    limits (-10.0 170.0)
  end
  begin
     id 4 
     name lfoot
     direction 0.122263 -0.335914 0.933924   
     length 1.76083   
     axis -90 7.62852e-016 20   XYZ
    dof rx rz
    limits (-45.0 90.0)
           (-70.0 20.0)
  end
  begin
     id 5 
     name ltoes
     direction 1.53533e-011 -4.2177e-011 1   
     length 0.879206   
     axis -90 7.62852e-016 20   XYZ
    dof rx
    limits (-90.0 20.0)
  end
  begin
     id 6 
     name rhipjoint
     direction -0.646469 -0.721248 0.248754   
     length 2.37677  
     axis 0 0 0  XYZ 
  end
  begin
     id 7 
     name rfemur
     direction -0.34202 -0.939693 0   
     length 7.18623   
     axis 0 0 -20   XYZ
    dof rx ry rz
    limits (-160.0 20.0)
           (-70.0 70.0)
           (-70.0 60.0)
  end
  begin
     id 8 
     name rtibia
     direction -0.34202 -0.939693 0   
     length 7.36567   
     axis 0 0 -20   XYZ
    dof rx
    limits (-10.0 170.0)
 end
 begin
     id 9 
     name rfoot
     direction -0.126681 -0.348054 0.928876   
     length 1.71902  
     axis -90 -7.62852e-016 -20   XYZ
    dof rx rz
    limits (-45.0 90.0)
           (-20.0 70.0)
  end
  begin
     id 10 
     name rtoes
     direction -1.53551e-011 -4.21898e-011 1   
     length 0.857792   
     axis -90 -7.62852e-016 -20   XYZ
    dof rx
    limits (-90.0 20.0)
  end
  begin
     id 11 
     name lowerback
     direction 0.0106509 0.999778 0.0181844   
     length 2.07668   
     axis 0 0 0   XYZ
    dof rx ry rz
    limits (-20.0 45.0)
           (-30.0 30.0)
           (-30.0 30.0)
  end
  begin
     id 12 
     name upperback
     direction -0.00456018 0.999989 -0.000590935   
     length 2.08011   
     axis 0 0 0   XYZ
    dof rx ry rz
    limits (-20.0 45.0)
           (-30.0 30.0)
           (-30.0 30.0)
  end
  begin
     id 13 
     name thorax
     direction -0.00910382 0.999916 -0.00923765   
     length 2.07397   
     axis 0 0 0   XYZ
    dof rx ry rz
    limits (-20.0 45.0)
           (-30.0 30.0)
           (-30.0 30.0)
  end
  begin
     id 14 
     name lowerneck
     direction 0.00171967 0.99778 0.0665733   
     length 1.67556   
     axis 0 0 0   XYZ
    dof rx ry rz
    limits (-20.0 45.0)
           (-30.0 30.0)
           (-30.0 30.0)
  end
  begin
     id 15 
     name upperneck
     direction -0.0143166 0.991302 -0.130828   
     length 1.68462   
     axis 0 0 0   XYZ
    dof rx ry rz
    limits (-20.0 45.0)
           (-30.0 30.0)
           (-30.0 30.0)
  end
  begin
     id 16
     name head
     direction -0.00606378 0.998665 -0.0512995  
     length 1.69269  
     axis 0 0 0   XYZ
    dof rx ry rz
    limits (-20.0 45.0)
           (-30.0 30.0)
           (-30.0 30.0)
  end
  begin
     id 17 
     name lclavicle
     direction 0.9638 0.179341 0.197297  
     length 4.12888  
     axis 0 0 0   XYZ
    dof ry rz
    limits (-20.0 10.0)
           (0.0 20.0)
  end
  begin
     id 18 
     name lhumerus
     direction 1 -4.48972e-011 -2.47351e-027   
     length 5.01834   
     axis -180 -30 -90   XYZ
    dof rx ry rz
    limits (-60.0 90.0)
           (-90.0 90.0)
           (-90.0 90.0)
  end
  begin
     id 19
     name lradius
     direction 1 -4.48965e-011 1.51591e-026   
     length 3.4869   
     axis -180 -30 -90   XYZ
    dof rx
    limits (-10.0 170.0)
  end
  begin
     id 20
     name lwrist
     direction 1 -4.48957e-011 2.70032e-026   
     length 1.74345   
     axis -1.81515e-014 90 90   XYZ
    dof ry
    limits (-180.0 0.0)
 end
  begin
     id 21 
     name lhand
     direction 1 -4.48951e-011 5.40064e-026   
     length 0.76799   
     axis -3.44607e-014 90 90   XYZ
    dof rx rz
    limits (-90.0 90.0)
           (-45.0 45.0)
  end
  begin
     id 22 
     name lfingers
     direction 1 -4.48971e-011 1.08013e-025   
     length 0.619174   
     axis -6.89214e-014 90 90   XYZ
    dof rx
    limits (0.0 90.0)
  end
  begin
     id 23
     name lthumb
     direction 0.707107 -6.34931e-011 0.707107   
     length 0.889013   
     axis -90 45 2.85299e-015   XYZ
    dof rx rz
    limits (-45.0 45.0)
           (-45.0 45.0)
  end
  begin
     id 24 
     name rclavicle
     direction -0.961409 0.252588 0.109054   
     length 4.04305  
     axis 0 0 0   XYZ 
    dof ry rz
    limits (-10.0 20.0)
           (-20.0 0.0)
  end
  begin
     id 25 
     name rhumerus
     direction -1 -4.4897e-011 1.33872e-017  
     length 4.70164   
     axis -180 30 90   XYZ
    dof rx ry rz
    limits (-90.0 60.0)
           (-90.0 90.0)
           (-90.0 90.0)
  end
  begin
     id 26 
     name rradius
     direction -1 -4.48954e-011 1.83844e-026   
     length 3.49911   
     axis -180 30 90   XYZ
    dof rx
    limits (-10.0 170.0)
  end
  begin
     id 27 
     name rwrist
     direction -1 -4.49008e-011 2.70032e-026   
     length 1.74955   
     axis -1.81515e-014 -90 -90   XYZ
    dof ry
    limits (-180.0 0.0)
  end
  begin
     id 28
     name rhand
     direction -1 -4.48916e-011 5.40064e-026   
     length 0.739335   
     axis -3.44607e-014 -90 -90   XYZ
    dof rx rz
    limits (-90.0 90.0)
           (-45.0 45.0)
  end
  begin
     id 29
     name rfingers
     direction -1 -4.48987e-011 1.08013e-025   
     length 0.596071   
     axis -6.89214e-014 -90 -90   XYZ
    dof rx
    limits (0.0 90.0)
  end
  begin
     id 30
     name rthumb
     direction -0.707107 -6.34935e-011 0.707107   
     length 0.855843   
     axis -90 -45 -2.85299e-015   XYZ
    dof rx rz
    limits (-45.0 45.0)
           (-45.0 45.0)
  end
:hierarchy
  begin
    root lhipjoint rhipjoint lowerback
    lhipjoint lfemur
    lfemur ltibia
    ltibia lfoot
    lfoot ltoes
    rhipjoint rfemur
    rfemur rtibia
    rtibia rfoot
    rfoot rtoes
    lowerback upperback
    upperback thorax
    thorax lowerneck lclavicle rclavicle
    lowerneck upperneck
    upperneck head
    lclavicle lhumerus
    lhumerus lradius
    lradius lwrist
    lwrist lhand lthumb
    lhand lfingers
    rclavicle rhumerus
    rhumerus rradius
    rradius rwrist
    rwrist rhand rthumb
    rhand rfingers
  end

#!OML:ASF I:\salsa\salsa 7_09\Patient 1\Session 1\dancermale.ASF
:FULLY-SPECIFIED
:DEGREES
669
root -2.8073 16.7664 3.25549 -361.599 101.461 -734.542
lowerback -3.50307 -11.1521 4.35492
upperback -3.56502 -14.8357 3.853
thorax -1.84204 -7.43161 1.37143
lowerneck -9.3143 5.46565 2.40531
upperneck 7.97279 7.70897 -6.46792
head 4.25583 3.54296 -1.8613
rclavicle 7.34509e-014 1.51076e-014
rhumerus -50.3234 -11.7344 -67.1636
rradius 91.876
rwrist -27.6938
rhand -38.3798 -14.4045
rfingers 7.12502
rthumb -11.4056 -44.0743
lclavicle 7.34509e-014 1.51076e-014
lhumerus 25.7164 5.8946 100.311
lradius 50.8895
lwrist 52.1933
lhand -26.3908 55.219
lfingers 7.12502
lthumb 0.168343 85.1987
rfemur -53.0159 6.14067 12.2914
rtibia 61.3854
rfoot -5.12818 -7.08415
rtoes 0.0843659
lfemur -7.21982 8.53135 -29.3187
ltibia 32.2346
lfoot -24.2288 9.79752
ltoes -8.7726
670
root -2.74715 16.7381 3.08125 -360.435 100.813 -733.463
lowerback -3.73067 -11.2296 4.80877
upperback -3.67287 -14.9449 4.04769
thorax -1.89488 -7.4896 1.31321
lowerneck -9.30807 5.53549 2.36459
upperneck 8.03609 7.80271 -6.38233
head 4.27319 3.59105 -1.82147
rclavicle -3.26007e-014 -2.3059e-014
rhumerus -51.0042 -11.6266 -67.2712
rradius 91.8335
rwrist -27.3541
rhand -38.7357 -14.4723
rfingers 7.12502
rthumb -11.7488 -44.1228
lclavicle -3.26007e-014 -2.3059e-014
lhumerus 24.9082 5.89581 100.121
lradius 51.4393
lwrist 52.3697
lhand -25.7347 55.1116
lfingers 7.12502
lthumb 0.801969 85.0898
rfemur -53.3835 3.0483 15.9555
rtibia 60.4628
rfoot -7.17118 -8.66898
rtoes -3.4462
lfemur -6.80726 9.32791 -29.6113
ltibia 31.8382
lfoot -24.4375 9.802
ltoes -6.85191
671
root -2.66127 16.7112 2.90824 -359.219 100.104 -732.421
lowerback -4.08917 -11.2255 5.17539
upperback -3.79171 -14.9516 4.31024
thorax -1.84673 -7.49254 1.33441
lowerneck -9.44949 5.54072 2.18936
upperneck 8.20152 7.84135 -6.36047
head 4.34144 3.59998 -1.77842
rclavicle 6.61953e-014 -7.95139e-015
rhumerus -51.5092 -11.6209 -67.2606
rradius 91.6361
rwrist -27.3022
rhand -39.015 -14.5894
rfingers 7.12502
rthumb -12.0181 -44.2243
lclavicle 6.61953e-014 -7.95139e-015
lhumerus 23.9251 5.60299 100.069
lradius 52.211
lwrist 52.5369
lhand -25.8802 55.2555
lfingers 7.12502
lthumb 0.66142 85.2342
rfemur -53.6255 0.0905313 19.6311
rtibia 58.5106
rfoot -7.85056 -7.57559
rtoes -6.41961
lfemur -6.38286 10.0303 -29.8961
ltibia 31.3786
lfoot -24.3606 9.80055
ltoes -5.5751
672
root -2.54697 16.6893 2.73503 -358.947 99.3729 -732.406
lowerback -4.63463 -11.149 5.30658
upperback -3.90203 -14.8754 4.54779
thorax -1.63331 -7.44869 1.39999
lowerneck -9.50859 5.51433 2.17586
upperneck 8.30834 7.8431 -6.59545
head 4.39374 3.58508 -1.84457
rclavicle -1.67973e-013 4.29375e-014
rhumerus -51.9433 -11.7521 -67.2321
rradius 91.3879
rwrist -27.3858
rhand -39.1648 -15.1108
rfingers 7.12502
rthumb -12.1626 -44.7373
lclavicle -1.67973e-013 4.29375e-014
lhumerus 22.6651 4.93102 100.059
lradius 53.4315
lwrist 52.7569
lhand -26.1451 55.5552
lfingers 7.12502
lthumb 0.405591 85.5345
rfemur -53.7951 -2.89355 23.2486
rtibia 56.0793
rfoot -7.6092 -5.96541
rtoes -11.5643
lfemur -5.89586 10.5479 -30.3927
ltibia 30.7912
lfoot -24.0033 9.83943
ltoes -5.36253
673
root -2.4042 16.669 2.55973 -357.269 98.7785 -730.903
lowerback -5.17233 -11.0928 5.72732
upperback -4.09064 -14.8267 4.76128
thorax -1.58681 -7.42409 1.32189
lowerneck -9.31539 5.44279 2.3535
upperneck 8.46963 7.77232 -6.89963
head 4.42755 3.54098 -1.97369
rclavicle 1.2921e-015 2.06736e-014
rhumerus -52.572 -11.8139 -67.3171
rradius 91.107
rwrist -27.5254
rhand -39.4071 -15.8329
rfingers 7.12502
rthumb -12.3962 -45.4454
lclavicle 1.2921e-015 2.06736e-014
lhumerus 20.8569 3.81698 99.6756
lradius 55.094
lwrist 53.3603
lhand -26.365 55.7387
lfingers 7.12502
lthumb 0.19321 85.7184
rfemur -53.7253 -6.09066 27.2969
rtibia 53.5652
rfoot -7.87042 -4.41104
rtoes -15.8318
lfemur -5.15324 10.7098 -30.6307
ltibia 30.0422
lfoot -23.3963 9.84673
ltoes -5.25539
674
root -2.23403 16.65 2.38647 -355.181 98.3487 -729.004
lowerback -5.80011 -11.0608 6.17864
upperback -4.34916 -14.8145 4.99458
thorax -1.56844 -7.41765 1.24003
lowerneck -9.17559 5.35497 2.36187
upperneck 8.93035 7.69812 -6.97773
head 4.54553 3.49458 -2.0029
rclavicle -7.78242e-014 -7.15625e-015
rhumerus -53.142 -11.7904 -67.432
rradius 90.7094
rwrist -27.7019
rhand -39.6841 -16.4371
rfingers 7.12502
rthumb -12.6632 -46.0332
lclavicle -7.78242e-014 -7.15625e-015
lhumerus 18.6569 2.29595 99.1787
lradius 57.1471
lwrist 54.2087
lhand -26.6282 55.852
lfingers 7.12502
lthumb -0.0610053 85.8318
rfemur -53.5545 -9.33892 31.3218
rtibia 51.1082
rfoot -8.20717 -3.5815
rtoes -17.4626
lfemur -4.40507 10.5786 -30.812
ltibia 29.4252
lfoot -22.6809 9.71545
ltoes -4.70672
675
root -2.04131 16.631 2.21169 -353.09 98.1798 -727.027
lowerback -6.40863 -11.0727 6.62631
upperback -4.59366 -14.8632 5.24241
thorax -1.54402 -7.4406 1.17617
lowerneck -9.09823 5.20002 2.36609
upperneck 9.33314 7.54494 -7.17025
head 4.65694 3.40306 -2.07176
rclavicle -1.06946e-013 -6.52014e-014
rhumerus -53.4593 -11.7632 -67.6174
rradius 90.1338
rwrist -27.5491
rhand -39.9657 -16.8655
rfingers 7.12502
rthumb -12.9347 -46.4446
lclavicle -1.06946e-013 -6.52014e-014
lhumerus 16.2276 0.672134 99.06
lradius 59.622
lwrist 54.9479
lhand -27.2031 56.1794
lfingers 7.12502
lthumb -0.616208 86.1582
rfemur -53.188 -12.5861 35.0774
rtibia 48.7232
rfoot -8.36129 -4.1452
rtoes -17.4041
lfemur -3.61681 10.1551 -30.9938
ltibia 29.0315
lfoot -21.8336 9.42581
ltoes -4.53279
676
root -1.82067 16.607 2.03725 -351.723 98.2476 -725.704
lowerback -7.03212 -11.1311 7.05429
upperback -4.90649 -14.9721 5.40809
thorax -1.60404 -7.49675 1.04837
lowerneck -9.07749 5.01071 2.28245
upperneck 10.1211 7.35422 -7.10448
head 4.88072 3.29479 -2.04599
rclavicle 9.54166e-014 2.54444e-014
rhumerus -53.7741 -11.7265 -67.8753
rradius 89.4255
rwrist -26.9332
rhand -39.8907 -16.8634
rfingers 7.12502
rthumb -12.8624 -46.4471
lclavicle 9.54166e-014 2.54444e-014
lhumerus 13.3661 -1.11139 99.1354
lradius 62.5042
lwrist 55.7761
lhand -27.8184 56.8805
lfingers 7.12502
lthumb -1.21053 86.8568
rfemur -52.211 -14.9967 37.5526
rtibia 46.2715
rfoot -8.4544 -4.93265
rtoes -17.1339
lfemur -2.74673 9.57074 -31.2178
ltibia 28.7687
lfoot -20.6587 8.96499
ltoes -5.42675
677
root -1.57451 16.5804 1.86463 -351.041 98.4091 -725.044
lowerback -7.7239 -11.1857 7.39891
upperback -5.28988 -15.0734 5.55396
thorax -1.68791 -7.54878 0.936172
lowerneck -8.77225 4.72805 2.06386
upperneck 10.7534 7.04172 -6.99764
head 4.99738 3.13518 -2.00394
rclavicle -4.58199e-014 6.36111e-014
rhumerus -54.0032 -11.7633 -68.0367
rradius 88.5274
rwrist -25.8725
rhand -39.2584 -16.4562
rfingers 7.12502
rthumb -12.2528 -46.0773
lclavicle -4.58199e-014 6.36111e-014
lhumerus 10.1084 -3.25203 99.2711
lradius 65.7549
lwrist 56.8734
lhand -28.2271 57.847
lfingers 7.12502
lthumb -1.60523 87.8207
rfemur -50.4705 -16.1024 38.5974
rtibia 43.8228
rfoot -9.62842 -5.55762
rtoes -2.90668
lfemur -1.93505 9.09504 -31.3828
ltibia 28.8094
lfoot -19.135 8.1602
ltoes -6.69363
